<svg xmlns="http://www.w3.org/2000/svg" xmlns:xlink="http://www.w3.org/1999/xlink" width="110" zoomAndPan="magnify" viewBox="0 0 82.5 30.000001" height="40" preserveAspectRatio="xMidYMid meet" version="1.0"><defs><filter x="0%" y="0%" width="100%" height="100%" id="6a89256782"><feColorMatrix values="0 0 0 0 1 0 0 0 0 1 0 0 0 0 1 0 0 0 1 0" color-interpolation-filters="sRGB"/></filter><g/><clipPath id="0cc92bccfc"><path d="M 1.089844 4.816406 L 21.410156 4.816406 L 21.410156 25.867188 L 1.089844 25.867188 Z M 1.089844 4.816406 " clip-rule="nonzero"/></clipPath><clipPath id="577860c3aa"><path d="M 1.089844 0 L 80.925781 0 L 80.925781 29.03125 L 1.089844 29.03125 Z M 1.089844 0 " clip-rule="nonzero"/></clipPath><clipPath id="001469075a"><path d="M 0.0898438 0 L 79.925781 0 L 79.925781 29.03125 L 0.0898438 29.03125 Z M 0.0898438 0 " clip-rule="nonzero"/></clipPath><clipPath id="854c72a026"><path d="M 0.0898438 0 L 79.925781 0 L 79.925781 29.03125 L 0.0898438 29.03125 Z M 0.0898438 0 " clip-rule="nonzero"/></clipPath><linearGradient x1="-33.287425" gradientTransform="matrix(0.722297, 0, 0, 0.723055, 24.132103, 2.981027)" y1="14.5" x2="77.247092" gradientUnits="userSpaceOnUse" y2="14.5" id="12a37b8e1e"><stop stop-opacity="1" stop-color="rgb(36.468506%, 87.838745%, 90.19928%)" offset="0"/><stop stop-opacity="1" stop-color="rgb(36.468506%, 87.838745%, 90.19928%)" offset="0.25"/><stop stop-opacity="1" stop-color="rgb(36.468506%, 87.838745%, 90.19928%)" offset="0.28125"/><stop stop-opacity="1" stop-color="rgb(36.468506%, 87.838745%, 90.19928%)" offset="0.296875"/><stop stop-opacity="1" stop-color="rgb(36.375427%, 87.687683%, 90.141296%)" offset="0.304687"/><stop stop-opacity="1" stop-color="rgb(36.076355%, 87.205505%, 89.958191%)" offset="0.308594"/><stop stop-opacity="1" stop-color="rgb(35.870361%, 86.872864%, 89.831543%)" offset="0.3125"/><stop stop-opacity="1" stop-color="rgb(35.662842%, 86.540222%, 89.704895%)" offset="0.316406"/><stop stop-opacity="1" stop-color="rgb(35.456848%, 86.207581%, 89.578247%)" offset="0.320312"/><stop stop-opacity="1" stop-color="rgb(35.250854%, 85.874939%, 89.451599%)" offset="0.324219"/><stop stop-opacity="1" stop-color="rgb(35.044861%, 85.542297%, 89.326477%)" offset="0.328125"/><stop stop-opacity="1" stop-color="rgb(34.838867%, 85.209656%, 89.199829%)" offset="0.332031"/><stop stop-opacity="1" stop-color="rgb(34.632874%, 84.877014%, 89.073181%)" offset="0.335938"/><stop stop-opacity="1" stop-color="rgb(34.42688%, 84.544373%, 88.946533%)" offset="0.339844"/><stop stop-opacity="1" stop-color="rgb(34.220886%, 84.211731%, 88.819885%)" offset="0.34375"/><stop stop-opacity="1" stop-color="rgb(34.013367%, 83.879089%, 88.693237%)" offset="0.347656"/><stop stop-opacity="1" stop-color="rgb(33.807373%, 83.546448%, 88.568115%)" offset="0.351562"/><stop stop-opacity="1" stop-color="rgb(33.601379%, 83.213806%, 88.441467%)" offset="0.355469"/><stop stop-opacity="1" stop-color="rgb(33.395386%, 82.881165%, 88.314819%)" offset="0.359375"/><stop stop-opacity="1" stop-color="rgb(33.189392%, 82.548523%, 88.188171%)" offset="0.363281"/><stop stop-opacity="1" stop-color="rgb(32.983398%, 82.215881%, 88.061523%)" offset="0.367188"/><stop stop-opacity="1" stop-color="rgb(32.775879%, 81.88324%, 87.934875%)" offset="0.371094"/><stop stop-opacity="1" stop-color="rgb(32.569885%, 81.550598%, 87.808228%)" offset="0.375"/><stop stop-opacity="1" stop-color="rgb(32.363892%, 81.217957%, 87.68158%)" offset="0.378906"/><stop stop-opacity="1" stop-color="rgb(32.157898%, 80.885315%, 87.556458%)" offset="0.382812"/><stop stop-opacity="1" stop-color="rgb(31.951904%, 80.552673%, 87.42981%)" offset="0.386719"/><stop stop-opacity="1" stop-color="rgb(31.745911%, 80.220032%, 87.303162%)" offset="0.390625"/><stop stop-opacity="1" stop-color="rgb(31.538391%, 79.88739%, 87.176514%)" offset="0.394531"/><stop stop-opacity="1" stop-color="rgb(31.332397%, 79.556274%, 87.049866%)" offset="0.398438"/><stop stop-opacity="1" stop-color="rgb(31.126404%, 79.223633%, 86.923218%)" offset="0.402344"/><stop stop-opacity="1" stop-color="rgb(30.92041%, 78.890991%, 86.798096%)" offset="0.40625"/><stop stop-opacity="1" stop-color="rgb(30.714417%, 78.55835%, 86.671448%)" offset="0.410156"/><stop stop-opacity="1" stop-color="rgb(30.508423%, 78.225708%, 86.5448%)" offset="0.414062"/><stop stop-opacity="1" stop-color="rgb(30.302429%, 77.893066%, 86.418152%)" offset="0.417969"/><stop stop-opacity="1" stop-color="rgb(30.096436%, 77.560425%, 86.291504%)" offset="0.421875"/><stop stop-opacity="1" stop-color="rgb(29.888916%, 77.227783%, 86.164856%)" offset="0.425781"/><stop stop-opacity="1" stop-color="rgb(29.682922%, 76.895142%, 86.038208%)" offset="0.429687"/><stop stop-opacity="1" stop-color="rgb(29.476929%, 76.5625%, 85.91156%)" offset="0.433594"/><stop stop-opacity="1" stop-color="rgb(29.270935%, 76.229858%, 85.786438%)" offset="0.4375"/><stop stop-opacity="1" stop-color="rgb(29.064941%, 75.897217%, 85.65979%)" offset="0.441406"/><stop stop-opacity="1" stop-color="rgb(28.858948%, 75.564575%, 85.533142%)" offset="0.445312"/><stop stop-opacity="1" stop-color="rgb(28.651428%, 75.231934%, 85.406494%)" offset="0.449219"/><stop stop-opacity="1" stop-color="rgb(28.445435%, 74.899292%, 85.279846%)" offset="0.453125"/><stop stop-opacity="1" stop-color="rgb(28.239441%, 74.56665%, 85.153198%)" offset="0.457031"/><stop stop-opacity="1" stop-color="rgb(28.033447%, 74.234009%, 85.02655%)" offset="0.460937"/><stop stop-opacity="1" stop-color="rgb(27.827454%, 73.901367%, 84.899902%)" offset="0.464844"/><stop stop-opacity="1" stop-color="rgb(27.62146%, 73.568726%, 84.77478%)" offset="0.46875"/><stop stop-opacity="1" stop-color="rgb(27.415466%, 73.236084%, 84.648132%)" offset="0.472656"/><stop stop-opacity="1" stop-color="rgb(27.209473%, 72.903442%, 84.521484%)" offset="0.476562"/><stop stop-opacity="1" stop-color="rgb(27.001953%, 72.570801%, 84.394836%)" offset="0.480469"/><stop stop-opacity="1" stop-color="rgb(26.795959%, 72.238159%, 84.268188%)" offset="0.484375"/><stop stop-opacity="1" stop-color="rgb(26.589966%, 71.905518%, 84.141541%)" offset="0.488281"/><stop stop-opacity="1" stop-color="rgb(26.383972%, 71.572876%, 84.016418%)" offset="0.492187"/><stop stop-opacity="1" stop-color="rgb(26.177979%, 71.240234%, 83.889771%)" offset="0.496094"/><stop stop-opacity="1" stop-color="rgb(25.971985%, 70.907593%, 83.763123%)" offset="0.5"/><stop stop-opacity="1" stop-color="rgb(25.764465%, 70.574951%, 83.636475%)" offset="0.503906"/><stop stop-opacity="1" stop-color="rgb(25.558472%, 70.24231%, 83.509827%)" offset="0.507812"/><stop stop-opacity="1" stop-color="rgb(25.352478%, 69.909668%, 83.383179%)" offset="0.511719"/><stop stop-opacity="1" stop-color="rgb(25.146484%, 69.577026%, 83.256531%)" offset="0.515625"/><stop stop-opacity="1" stop-color="rgb(24.940491%, 69.244385%, 83.129883%)" offset="0.519531"/><stop stop-opacity="1" stop-color="rgb(24.734497%, 68.911743%, 83.004761%)" offset="0.523438"/><stop stop-opacity="1" stop-color="rgb(24.526978%, 68.579102%, 82.878113%)" offset="0.527344"/><stop stop-opacity="1" stop-color="rgb(24.320984%, 68.24646%, 82.751465%)" offset="0.53125"/><stop stop-opacity="1" stop-color="rgb(24.11499%, 67.913818%, 82.624817%)" offset="0.535156"/><stop stop-opacity="1" stop-color="rgb(23.908997%, 67.582703%, 82.498169%)" offset="0.539062"/><stop stop-opacity="1" stop-color="rgb(23.703003%, 67.250061%, 82.371521%)" offset="0.542969"/><stop stop-opacity="1" stop-color="rgb(23.497009%, 66.917419%, 82.246399%)" offset="0.546875"/><stop stop-opacity="1" stop-color="rgb(23.291016%, 66.584778%, 82.119751%)" offset="0.550781"/><stop stop-opacity="1" stop-color="rgb(23.085022%, 66.252136%, 81.993103%)" offset="0.554688"/><stop stop-opacity="1" stop-color="rgb(22.877502%, 65.919495%, 81.866455%)" offset="0.558594"/><stop stop-opacity="1" stop-color="rgb(22.671509%, 65.586853%, 81.739807%)" offset="0.5625"/><stop stop-opacity="1" stop-color="rgb(22.465515%, 65.254211%, 81.613159%)" offset="0.566406"/><stop stop-opacity="1" stop-color="rgb(22.259521%, 64.92157%, 81.486511%)" offset="0.570312"/><stop stop-opacity="1" stop-color="rgb(22.053528%, 64.588928%, 81.359863%)" offset="0.574219"/><stop stop-opacity="1" stop-color="rgb(21.847534%, 64.256287%, 81.234741%)" offset="0.578125"/><stop stop-opacity="1" stop-color="rgb(21.640015%, 63.923645%, 81.108093%)" offset="0.582031"/><stop stop-opacity="1" stop-color="rgb(21.434021%, 63.591003%, 80.981445%)" offset="0.585938"/><stop stop-opacity="1" stop-color="rgb(21.228027%, 63.258362%, 80.854797%)" offset="0.589844"/><stop stop-opacity="1" stop-color="rgb(21.022034%, 62.92572%, 80.728149%)" offset="0.59375"/><stop stop-opacity="1" stop-color="rgb(20.81604%, 62.593079%, 80.601501%)" offset="0.597656"/><stop stop-opacity="1" stop-color="rgb(20.610046%, 62.260437%, 80.474854%)" offset="0.601562"/><stop stop-opacity="1" stop-color="rgb(20.402527%, 61.927795%, 80.348206%)" offset="0.605469"/><stop stop-opacity="1" stop-color="rgb(20.196533%, 61.595154%, 80.223083%)" offset="0.609375"/><stop stop-opacity="1" stop-color="rgb(19.99054%, 61.262512%, 80.096436%)" offset="0.613281"/><stop stop-opacity="1" stop-color="rgb(19.784546%, 60.929871%, 79.969788%)" offset="0.617187"/><stop stop-opacity="1" stop-color="rgb(19.578552%, 60.597229%, 79.84314%)" offset="0.621094"/><stop stop-opacity="1" stop-color="rgb(19.372559%, 60.264587%, 79.716492%)" offset="0.625"/><stop stop-opacity="1" stop-color="rgb(19.166565%, 59.931946%, 79.589844%)" offset="0.628906"/><stop stop-opacity="1" stop-color="rgb(18.960571%, 59.599304%, 79.464722%)" offset="0.632812"/><stop stop-opacity="1" stop-color="rgb(18.753052%, 59.266663%, 79.338074%)" offset="0.636719"/><stop stop-opacity="1" stop-color="rgb(18.547058%, 58.934021%, 79.211426%)" offset="0.640625"/><stop stop-opacity="1" stop-color="rgb(18.341064%, 58.601379%, 79.084778%)" offset="0.644531"/><stop stop-opacity="1" stop-color="rgb(18.135071%, 58.268738%, 78.95813%)" offset="0.648438"/><stop stop-opacity="1" stop-color="rgb(17.929077%, 57.936096%, 78.831482%)" offset="0.652344"/><stop stop-opacity="1" stop-color="rgb(17.723083%, 57.603455%, 78.704834%)" offset="0.65625"/><stop stop-opacity="1" stop-color="rgb(17.515564%, 57.270813%, 78.578186%)" offset="0.660156"/><stop stop-opacity="1" stop-color="rgb(17.30957%, 56.938171%, 78.453064%)" offset="0.664062"/><stop stop-opacity="1" stop-color="rgb(17.103577%, 56.60553%, 78.326416%)" offset="0.667969"/><stop stop-opacity="1" stop-color="rgb(16.897583%, 56.272888%, 78.199768%)" offset="0.671875"/><stop stop-opacity="1" stop-color="rgb(16.691589%, 55.940247%, 78.07312%)" offset="0.675781"/><stop stop-opacity="1" stop-color="rgb(16.485596%, 55.607605%, 77.946472%)" offset="0.679688"/><stop stop-opacity="1" stop-color="rgb(16.278076%, 55.274963%, 77.819824%)" offset="0.683594"/><stop stop-opacity="1" stop-color="rgb(16.072083%, 54.943848%, 77.694702%)" offset="0.6875"/><stop stop-opacity="1" stop-color="rgb(15.866089%, 54.611206%, 77.568054%)" offset="0.691406"/><stop stop-opacity="1" stop-color="rgb(15.660095%, 54.278564%, 77.441406%)" offset="0.695312"/><stop stop-opacity="1" stop-color="rgb(15.454102%, 53.945923%, 77.314758%)" offset="0.699219"/><stop stop-opacity="1" stop-color="rgb(15.248108%, 53.613281%, 77.18811%)" offset="0.703125"/><stop stop-opacity="1" stop-color="rgb(15.042114%, 53.28064%, 77.061462%)" offset="0.707031"/><stop stop-opacity="1" stop-color="rgb(14.836121%, 52.947998%, 76.934814%)" offset="0.710938"/><stop stop-opacity="1" stop-color="rgb(14.628601%, 52.615356%, 76.808167%)" offset="0.714844"/><stop stop-opacity="1" stop-color="rgb(14.422607%, 52.282715%, 76.683044%)" offset="0.71875"/><stop stop-opacity="1" stop-color="rgb(14.216614%, 51.950073%, 76.556396%)" offset="0.722656"/><stop stop-opacity="1" stop-color="rgb(14.01062%, 51.617432%, 76.429749%)" offset="0.726562"/><stop stop-opacity="1" stop-color="rgb(13.804626%, 51.28479%, 76.303101%)" offset="0.730469"/><stop stop-opacity="1" stop-color="rgb(13.598633%, 50.952148%, 76.176453%)" offset="0.734375"/><stop stop-opacity="1" stop-color="rgb(13.391113%, 50.619507%, 76.049805%)" offset="0.738281"/><stop stop-opacity="1" stop-color="rgb(13.18512%, 50.286865%, 75.924683%)" offset="0.742187"/><stop stop-opacity="1" stop-color="rgb(12.979126%, 49.954224%, 75.798035%)" offset="0.746094"/><stop stop-opacity="1" stop-color="rgb(12.773132%, 49.621582%, 75.671387%)" offset="0.75"/><stop stop-opacity="1" stop-color="rgb(12.567139%, 49.28894%, 75.544739%)" offset="0.753906"/><stop stop-opacity="1" stop-color="rgb(12.361145%, 48.956299%, 75.418091%)" offset="0.757812"/><stop stop-opacity="1" stop-color="rgb(12.153625%, 48.623657%, 75.291443%)" offset="0.761719"/><stop stop-opacity="1" stop-color="rgb(11.947632%, 48.291016%, 75.164795%)" offset="0.765625"/><stop stop-opacity="1" stop-color="rgb(11.741638%, 47.958374%, 75.038147%)" offset="0.769531"/><stop stop-opacity="1" stop-color="rgb(11.535645%, 47.625732%, 74.913025%)" offset="0.773437"/><stop stop-opacity="1" stop-color="rgb(11.329651%, 47.293091%, 74.786377%)" offset="0.777344"/><stop stop-opacity="1" stop-color="rgb(11.123657%, 46.960449%, 74.659729%)" offset="0.78125"/><stop stop-opacity="1" stop-color="rgb(10.917664%, 46.627808%, 74.533081%)" offset="0.785156"/><stop stop-opacity="1" stop-color="rgb(10.71167%, 46.295166%, 74.406433%)" offset="0.789062"/><stop stop-opacity="1" stop-color="rgb(10.50415%, 45.962524%, 74.279785%)" offset="0.792969"/><stop stop-opacity="1" stop-color="rgb(10.298157%, 45.629883%, 74.153137%)" offset="0.796875"/><stop stop-opacity="1" stop-color="rgb(10.092163%, 45.297241%, 74.026489%)" offset="0.800781"/><stop stop-opacity="1" stop-color="rgb(9.886169%, 44.9646%, 73.901367%)" offset="0.804687"/><stop stop-opacity="1" stop-color="rgb(9.680176%, 44.631958%, 73.774719%)" offset="0.808594"/><stop stop-opacity="1" stop-color="rgb(9.474182%, 44.299316%, 73.648071%)" offset="0.8125"/><stop stop-opacity="1" stop-color="rgb(9.266663%, 43.966675%, 73.521423%)" offset="0.816406"/><stop stop-opacity="1" stop-color="rgb(9.060669%, 43.634033%, 73.394775%)" offset="0.820312"/><stop stop-opacity="1" stop-color="rgb(8.854675%, 43.301392%, 73.268127%)" offset="0.824219"/><stop stop-opacity="1" stop-color="rgb(8.648682%, 42.970276%, 73.143005%)" offset="0.828125"/><stop stop-opacity="1" stop-color="rgb(8.442688%, 42.637634%, 73.016357%)" offset="0.832031"/><stop stop-opacity="1" stop-color="rgb(8.236694%, 42.304993%, 72.889709%)" offset="0.835937"/><stop stop-opacity="1" stop-color="rgb(8.029175%, 41.972351%, 72.763062%)" offset="0.839844"/><stop stop-opacity="1" stop-color="rgb(7.823181%, 41.639709%, 72.636414%)" offset="0.84375"/><stop stop-opacity="1" stop-color="rgb(7.617188%, 41.307068%, 72.509766%)" offset="0.847656"/><stop stop-opacity="1" stop-color="rgb(7.411194%, 40.974426%, 72.383118%)" offset="0.851562"/><stop stop-opacity="1" stop-color="rgb(7.2052%, 40.641785%, 72.25647%)" offset="0.855469"/><stop stop-opacity="1" stop-color="rgb(6.999207%, 40.309143%, 72.131348%)" offset="0.859375"/><stop stop-opacity="1" stop-color="rgb(6.793213%, 39.976501%, 72.0047%)" offset="0.863281"/><stop stop-opacity="1" stop-color="rgb(6.587219%, 39.64386%, 71.878052%)" offset="0.867187"/><stop stop-opacity="1" stop-color="rgb(6.3797%, 39.311218%, 71.751404%)" offset="0.871094"/><stop stop-opacity="1" stop-color="rgb(6.173706%, 38.978577%, 71.624756%)" offset="0.875"/><stop stop-opacity="1" stop-color="rgb(5.967712%, 38.645935%, 71.498108%)" offset="0.878906"/><stop stop-opacity="1" stop-color="rgb(5.761719%, 38.313293%, 71.372986%)" offset="0.882812"/><stop stop-opacity="1" stop-color="rgb(5.555725%, 37.980652%, 71.246338%)" offset="0.886719"/><stop stop-opacity="1" stop-color="rgb(5.349731%, 37.64801%, 71.11969%)" offset="0.890625"/><stop stop-opacity="1" stop-color="rgb(5.142212%, 37.315369%, 70.993042%)" offset="0.894531"/><stop stop-opacity="1" stop-color="rgb(4.936218%, 36.982727%, 70.866394%)" offset="0.898438"/><stop stop-opacity="1" stop-color="rgb(4.730225%, 36.650085%, 70.739746%)" offset="0.902344"/><stop stop-opacity="1" stop-color="rgb(4.524231%, 36.317444%, 70.613098%)" offset="0.90625"/><stop stop-opacity="1" stop-color="rgb(4.318237%, 35.984802%, 70.48645%)" offset="0.910156"/><stop stop-opacity="1" stop-color="rgb(4.112244%, 35.652161%, 70.361328%)" offset="0.914062"/><stop stop-opacity="1" stop-color="rgb(3.90625%, 35.319519%, 70.23468%)" offset="0.917969"/><stop stop-opacity="1" stop-color="rgb(3.700256%, 34.986877%, 70.108032%)" offset="0.921875"/><stop stop-opacity="1" stop-color="rgb(3.492737%, 34.654236%, 69.981384%)" offset="0.925781"/><stop stop-opacity="1" stop-color="rgb(3.286743%, 34.321594%, 69.854736%)" offset="0.929688"/><stop stop-opacity="1" stop-color="rgb(3.08075%, 33.988953%, 69.728088%)" offset="0.933594"/><stop stop-opacity="1" stop-color="rgb(2.874756%, 33.656311%, 69.60144%)" offset="0.9375"/><stop stop-opacity="1" stop-color="rgb(2.668762%, 33.323669%, 69.474792%)" offset="0.941406"/><stop stop-opacity="1" stop-color="rgb(2.462769%, 32.991028%, 69.34967%)" offset="0.945312"/><stop stop-opacity="1" stop-color="rgb(2.255249%, 32.658386%, 69.223022%)" offset="0.949219"/><stop stop-opacity="1" stop-color="rgb(2.049255%, 32.325745%, 69.096375%)" offset="0.953125"/><stop stop-opacity="1" stop-color="rgb(1.843262%, 31.993103%, 68.969727%)" offset="0.957031"/><stop stop-opacity="1" stop-color="rgb(1.637268%, 31.660461%, 68.843079%)" offset="0.960938"/><stop stop-opacity="1" stop-color="rgb(1.431274%, 31.32782%, 68.716431%)" offset="0.964844"/><stop stop-opacity="1" stop-color="rgb(1.225281%, 30.995178%, 68.591309%)" offset="0.96875"/><stop stop-opacity="1" stop-color="rgb(1.017761%, 30.662537%, 68.464661%)" offset="0.972656"/><stop stop-opacity="1" stop-color="rgb(0.811768%, 30.331421%, 68.338013%)" offset="0.976562"/><stop stop-opacity="1" stop-color="rgb(0.605774%, 29.998779%, 68.211365%)" offset="0.980469"/><stop stop-opacity="1" stop-color="rgb(0.39978%, 29.666138%, 68.084717%)" offset="0.984375"/><stop stop-opacity="1" stop-color="rgb(0.19989%, 29.342651%, 67.961121%)" offset="0.988281"/><stop stop-opacity="1" stop-color="rgb(0%, 29.019165%, 67.83905%)" offset="0.992188"/><stop stop-opacity="1" stop-color="rgb(0%, 29.019165%, 67.83905%)" offset="1"/></linearGradient><clipPath id="25b991309c"><rect x="0" width="80" y="0" height="30"/></clipPath><clipPath id="8f36594675"><path d="M 0.0898438 0 L 79.925781 0 L 79.925781 29.03125 L 0.0898438 29.03125 Z M 0.0898438 0 " clip-rule="nonzero"/></clipPath><clipPath id="94ff9f60ca"><path d="M 69 8 L 79.925781 8 L 79.925781 20 L 69 20 Z M 69 8 " clip-rule="nonzero"/></clipPath><clipPath id="ffcb64c62c"><rect x="0" width="80" y="0" height="30"/></clipPath><clipPath id="24a1630aab"><rect x="0" width="80" y="0" height="30"/></clipPath><mask id="87848862ae"><g filter="url(#6a89256782)"><g transform="matrix(1, 0, 0, 1, 0, 0.000000000000005692)"><g clip-path="url(#24a1630aab)"><g clip-path="url(#8f36594675)"><g transform="matrix(1, 0, 0, 1, 0, 0.000000000000005692)"><g clip-path="url(#ffcb64c62c)"><g fill="#000000" fill-opacity="1"><g transform="translate(24.491281, 19.271413)"><g><path d="M 10.734375 -10.9375 C 11.328125 -10.644531 11.625 -10.320312 11.625 -9.96875 C 11.625 -9.800781 11.550781 -9.554688 11.40625 -9.234375 L 7.21875 -0.75 C 7.113281 -0.53125 6.945312 -0.351562 6.71875 -0.21875 C 6.488281 -0.0820312 6.253906 -0.015625 6.015625 -0.015625 L 5.859375 -0.015625 C 5.609375 -0.015625 5.367188 -0.0820312 5.140625 -0.21875 C 4.910156 -0.351562 4.742188 -0.53125 4.640625 -0.75 L 0.453125 -9.234375 C 0.304688 -9.554688 0.234375 -9.800781 0.234375 -9.96875 C 0.234375 -10.320312 0.53125 -10.644531 1.125 -10.9375 C 1.457031 -11.101562 1.710938 -11.1875 1.890625 -11.1875 C 2.066406 -11.1875 2.195312 -11.164062 2.28125 -11.125 C 2.375 -11.082031 2.460938 -11.015625 2.546875 -10.921875 C 2.640625 -10.796875 2.722656 -10.660156 2.796875 -10.515625 C 2.867188 -10.367188 3.0625 -9.945312 3.375 -9.25 C 3.6875 -8.5625 4.019531 -7.828125 4.375 -7.046875 C 4.738281 -6.273438 5.078125 -5.539062 5.390625 -4.84375 C 5.710938 -4.15625 5.894531 -3.769531 5.9375 -3.6875 L 8.96875 -10.328125 C 9.039062 -10.515625 9.109375 -10.664062 9.171875 -10.78125 C 9.359375 -11.050781 9.582031 -11.1875 9.84375 -11.1875 C 10.101562 -11.1875 10.398438 -11.101562 10.734375 -10.9375 Z M 10.734375 -10.9375 "/></g></g></g><g fill="#000000" fill-opacity="1"><g transform="translate(34.066952, 19.271413)"><g><path d="M 7.015625 -10.3125 L 11.09375 -1.859375 C 11.269531 -1.515625 11.359375 -1.257812 11.359375 -1.09375 C 11.359375 -0.726562 11.066406 -0.398438 10.484375 -0.109375 C 10.140625 0.0664062 9.867188 0.15625 9.671875 0.15625 C 9.472656 0.15625 9.3125 0.109375 9.1875 0.015625 C 9.0625 -0.078125 8.96875 -0.171875 8.90625 -0.265625 C 8.851562 -0.367188 8.773438 -0.523438 8.671875 -0.734375 L 7.890625 -2.359375 L 3.6875 -2.359375 L 2.90625 -0.734375 C 2.800781 -0.523438 2.722656 -0.375 2.671875 -0.28125 C 2.617188 -0.195312 2.523438 -0.101562 2.390625 0 C 2.265625 0.09375 2.101562 0.140625 1.90625 0.140625 C 1.71875 0.140625 1.453125 0.0507812 1.109375 -0.125 C 0.523438 -0.40625 0.234375 -0.726562 0.234375 -1.09375 C 0.234375 -1.257812 0.316406 -1.515625 0.484375 -1.859375 L 4.578125 -10.328125 C 4.679688 -10.554688 4.847656 -10.738281 5.078125 -10.875 C 5.304688 -11.019531 5.546875 -11.09375 5.796875 -11.09375 C 6.335938 -11.09375 6.742188 -10.832031 7.015625 -10.3125 Z M 5.78125 -6.671875 L 4.78125 -4.609375 L 6.796875 -4.609375 Z M 5.78125 -6.671875 "/></g></g></g><g fill="#000000" fill-opacity="1"><g transform="translate(45.640273, 19.271413)"><g><path d="M 0.609375 -9.765625 C 0.609375 -9.992188 0.613281 -10.164062 0.625 -10.28125 C 0.644531 -10.40625 0.691406 -10.539062 0.765625 -10.6875 C 0.910156 -10.957031 1.304688 -11.09375 1.953125 -11.09375 C 2.660156 -11.09375 3.078125 -10.90625 3.203125 -10.53125 C 3.253906 -10.363281 3.28125 -10.101562 3.28125 -9.75 L 3.28125 -1.328125 C 3.28125 -1.085938 3.269531 -0.910156 3.25 -0.796875 C 3.238281 -0.691406 3.195312 -0.5625 3.125 -0.40625 C 2.976562 -0.132812 2.582031 0 1.9375 0 C 1.226562 0 0.816406 -0.191406 0.703125 -0.578125 C 0.640625 -0.734375 0.609375 -0.988281 0.609375 -1.34375 Z M 0.609375 -9.765625 "/></g></g></g><g fill="#000000" fill-opacity="1"><g transform="translate(49.528303, 19.271413)"><g><path d="M 5.359375 -5.578125 C 6.898438 -4.085938 7.992188 -2.96875 8.640625 -2.21875 C 8.972656 -1.851562 9.140625 -1.539062 9.140625 -1.28125 C 9.140625 -1.019531 8.9375 -0.710938 8.53125 -0.359375 C 8.132812 -0.015625 7.804688 0.15625 7.546875 0.15625 C 7.285156 0.15625 6.972656 -0.0546875 6.609375 -0.484375 L 3.28125 -4.28125 L 3.28125 -1.328125 C 3.28125 -1.085938 3.269531 -0.910156 3.25 -0.796875 C 3.238281 -0.691406 3.195312 -0.5625 3.125 -0.40625 C 2.976562 -0.132812 2.582031 0 1.9375 0 C 1.226562 0 0.816406 -0.191406 0.703125 -0.578125 C 0.640625 -0.734375 0.609375 -0.988281 0.609375 -1.34375 L 0.609375 -9.765625 C 0.609375 -9.992188 0.613281 -10.164062 0.625 -10.28125 C 0.644531 -10.40625 0.691406 -10.539062 0.765625 -10.6875 C 0.910156 -10.957031 1.304688 -11.09375 1.953125 -11.09375 C 2.660156 -11.09375 3.078125 -10.90625 3.203125 -10.53125 C 3.253906 -10.363281 3.28125 -10.101562 3.28125 -9.75 L 3.28125 -6.859375 C 4.65625 -8.398438 5.765625 -9.664062 6.609375 -10.65625 C 6.960938 -11.070312 7.269531 -11.28125 7.53125 -11.28125 C 7.800781 -11.28125 8.132812 -11.101562 8.53125 -10.75 C 8.9375 -10.40625 9.140625 -10.101562 9.140625 -9.84375 C 9.140625 -9.59375 8.988281 -9.289062 8.6875 -8.9375 C 8.101562 -8.257812 7.195312 -7.328125 5.96875 -6.140625 Z M 5.359375 -5.578125 "/></g></g></g><g fill="#000000" fill-opacity="1"><g transform="translate(59.19543, 19.271413)"><g><path d="M 3.28125 -2.6875 L 7.953125 -2.6875 C 8.179688 -2.6875 8.351562 -2.675781 8.46875 -2.65625 C 8.582031 -2.644531 8.71875 -2.597656 8.875 -2.515625 C 9.144531 -2.367188 9.28125 -1.972656 9.28125 -1.328125 C 9.28125 -0.617188 9.09375 -0.207031 8.71875 -0.09375 C 8.550781 -0.03125 8.289062 0 7.9375 0 L 1.9375 0 C 1.226562 0 0.816406 -0.191406 0.703125 -0.578125 C 0.640625 -0.734375 0.609375 -0.988281 0.609375 -1.34375 L 0.609375 -9.765625 C 0.609375 -10.273438 0.703125 -10.625 0.890625 -10.8125 C 1.085938 -11 1.453125 -11.09375 1.984375 -11.09375 L 7.953125 -11.09375 C 8.179688 -11.09375 8.351562 -11.082031 8.46875 -11.0625 C 8.582031 -11.050781 8.71875 -11.007812 8.875 -10.9375 C 9.144531 -10.789062 9.28125 -10.394531 9.28125 -9.75 C 9.28125 -9.039062 9.09375 -8.628906 8.71875 -8.515625 C 8.550781 -8.453125 8.289062 -8.421875 7.9375 -8.421875 L 3.28125 -8.421875 L 3.28125 -6.890625 L 6.28125 -6.890625 C 6.507812 -6.890625 6.679688 -6.878906 6.796875 -6.859375 C 6.921875 -6.847656 7.054688 -6.800781 7.203125 -6.71875 C 7.472656 -6.582031 7.609375 -6.191406 7.609375 -5.546875 C 7.609375 -4.835938 7.421875 -4.421875 7.046875 -4.296875 C 6.867188 -4.234375 6.601562 -4.203125 6.25 -4.203125 L 3.28125 -4.203125 Z M 3.28125 -2.6875 "/></g></g></g><g clip-path="url(#94ff9f60ca)"><g fill="#000000" fill-opacity="1"><g transform="translate(68.847429, 19.271413)"><g><path d="M 1.328125 -11.109375 L 9.75 -11.109375 C 10.070312 -11.109375 10.304688 -11.070312 10.453125 -11 C 10.609375 -10.925781 10.710938 -10.804688 10.765625 -10.640625 C 10.816406 -10.484375 10.84375 -10.269531 10.84375 -10 C 10.84375 -9.738281 10.816406 -9.53125 10.765625 -9.375 C 10.710938 -9.21875 10.625 -9.109375 10.5 -9.046875 C 10.320312 -8.960938 10.066406 -8.921875 9.734375 -8.921875 L 6.84375 -8.921875 L 6.84375 -1.296875 C 6.84375 -1.066406 6.832031 -0.894531 6.8125 -0.78125 C 6.800781 -0.675781 6.757812 -0.550781 6.6875 -0.40625 C 6.613281 -0.257812 6.476562 -0.15625 6.28125 -0.09375 C 6.09375 -0.03125 5.84375 0 5.53125 0 C 5.21875 0 4.96875 -0.03125 4.78125 -0.09375 C 4.59375 -0.15625 4.457031 -0.257812 4.375 -0.40625 C 4.300781 -0.550781 4.253906 -0.679688 4.234375 -0.796875 C 4.222656 -0.910156 4.21875 -1.082031 4.21875 -1.3125 L 4.21875 -8.921875 L 1.3125 -8.921875 C 0.988281 -8.921875 0.75 -8.957031 0.59375 -9.03125 C 0.445312 -9.101562 0.347656 -9.21875 0.296875 -9.375 C 0.253906 -9.539062 0.234375 -9.753906 0.234375 -10.015625 C 0.234375 -10.285156 0.253906 -10.5 0.296875 -10.65625 C 0.347656 -10.8125 0.4375 -10.921875 0.5625 -10.984375 C 0.738281 -11.066406 0.992188 -11.109375 1.328125 -11.109375 Z M 1.328125 -11.109375 "/></g></g></g></g></g></g></g></g></g></g></mask><clipPath id="652a6e5758"><path d="M 0.0898438 0 L 79.925781 0 L 79.925781 29.03125 L 0.0898438 29.03125 Z M 0.0898438 0 " clip-rule="nonzero"/></clipPath><clipPath id="50111c467f"><rect x="0" width="80" y="0" height="30"/></clipPath><clipPath id="a116a7f479"><rect x="0" width="80" y="0" height="30"/></clipPath></defs><path fill="#004aad" d="M 11.195312 8.910156 C 10.515625 8.910156 9.960938 8.355469 9.960938 7.675781 C 9.960938 7 10.515625 6.445312 11.195312 6.445312 C 11.875 6.445312 12.429688 7 12.429688 7.675781 C 12.429688 8.355469 11.875 8.910156 11.195312 8.910156 Z M 11.195312 7.054688 C 10.855469 7.054688 10.574219 7.335938 10.574219 7.675781 C 10.574219 8.019531 10.855469 8.300781 11.195312 8.300781 C 11.535156 8.300781 11.816406 8.019531 11.816406 7.675781 C 11.816406 7.335938 11.535156 7.054688 11.195312 7.054688 Z M 11.195312 7.054688 " fill-opacity="1" fill-rule="nonzero"/><path fill="#004aad" d="M 11.195312 10.476562 C 11.027344 10.476562 10.890625 10.335938 10.890625 10.167969 L 10.890625 8.605469 C 10.890625 8.4375 11.027344 8.300781 11.195312 8.300781 C 11.363281 8.300781 11.5 8.4375 11.5 8.605469 L 11.5 10.167969 C 11.5 10.335938 11.363281 10.476562 11.195312 10.476562 Z M 11.195312 10.476562 " fill-opacity="1" fill-rule="nonzero"/><path fill="#004aad" d="M 14.671875 17.320312 L 11.195312 17.320312 C 11.027344 17.320312 10.890625 17.183594 10.890625 17.015625 C 10.890625 16.847656 11.027344 16.707031 11.195312 16.707031 L 14.671875 16.707031 C 15.113281 16.707031 15.476562 16.347656 15.476562 15.902344 L 15.476562 11.285156 C 15.476562 10.84375 15.113281 10.480469 14.671875 10.480469 L 11.195312 10.480469 C 11.027344 10.480469 10.890625 10.34375 10.890625 10.175781 C 10.890625 10.007812 11.027344 9.867188 11.195312 9.867188 L 14.671875 9.867188 C 15.457031 9.867188 16.089844 10.507812 16.089844 11.285156 L 16.089844 15.902344 C 16.089844 16.683594 15.449219 17.320312 14.671875 17.320312 Z M 14.671875 17.320312 " fill-opacity="1" fill-rule="nonzero"/><path fill="#004aad" d="M 16.558594 15.214844 L 15.78125 15.214844 C 15.613281 15.214844 15.476562 15.078125 15.476562 14.910156 L 15.476562 12.1875 C 15.476562 12.019531 15.613281 11.882812 15.78125 11.882812 L 16.558594 11.882812 C 17.050781 11.882812 17.449219 12.285156 17.449219 12.773438 L 17.449219 14.316406 C 17.449219 14.816406 17.046875 15.214844 16.558594 15.214844 Z M 16.089844 14.605469 L 16.558594 14.605469 C 16.710938 14.605469 16.835938 14.476562 16.835938 14.324219 L 16.835938 12.777344 C 16.835938 12.625 16.710938 12.5 16.558594 12.5 L 16.089844 12.5 Z M 16.089844 14.605469 " fill-opacity="1" fill-rule="nonzero"/><path fill="#004aad" d="M 13.140625 13.371094 C 12.878906 13.371094 12.703125 13.101562 12.703125 12.683594 C 12.703125 12.265625 12.878906 11.992188 13.140625 11.992188 C 13.40625 11.992188 13.582031 12.265625 13.582031 12.683594 C 13.585938 13.101562 13.414062 13.371094 13.140625 13.371094 Z M 13.140625 13.371094 " fill-opacity="1" fill-rule="nonzero"/><path fill="#004aad" d="M 11.183594 15.628906 C 11.015625 15.628906 10.878906 15.492188 10.878906 15.320312 C 10.878906 15.152344 11.015625 15.015625 11.183594 15.015625 C 12.015625 15.015625 12.351562 14.5 12.363281 14.480469 C 12.449219 14.339844 12.636719 14.292969 12.78125 14.378906 C 12.921875 14.464844 12.96875 14.65625 12.882812 14.800781 C 12.867188 14.832031 12.371094 15.628906 11.183594 15.628906 Z M 11.183594 15.628906 " fill-opacity="1" fill-rule="nonzero"/><path fill="#004aad" d="M 15.5 20.820312 L 12.605469 20.820312 C 12.171875 20.820312 11.816406 20.464844 11.816406 20.03125 L 11.816406 18.671875 C 11.816406 18.238281 12.171875 17.878906 12.605469 17.878906 L 15.5 17.878906 C 15.933594 17.878906 16.292969 18.238281 16.292969 18.671875 L 16.292969 20.03125 C 16.292969 20.464844 15.933594 20.820312 15.5 20.820312 Z M 12.605469 18.492188 C 12.511719 18.492188 12.429688 18.574219 12.429688 18.671875 L 12.429688 20.03125 C 12.429688 20.128906 12.511719 20.210938 12.605469 20.210938 L 15.5 20.210938 C 15.597656 20.210938 15.679688 20.128906 15.679688 20.03125 L 15.679688 18.671875 C 15.679688 18.574219 15.597656 18.492188 15.5 18.492188 Z M 12.605469 18.492188 " fill-opacity="1" fill-rule="nonzero"/><path fill="#004aad" d="M 12.121094 19.65625 C 11.953125 19.65625 11.816406 19.515625 11.816406 19.347656 C 11.816406 19.230469 11.597656 19.109375 11.195312 19.109375 C 11.027344 19.109375 10.890625 18.972656 10.890625 18.804688 C 10.890625 18.636719 11.027344 18.496094 11.195312 18.496094 C 12.046875 18.496094 12.429688 18.925781 12.429688 19.347656 C 12.429688 19.523438 12.292969 19.65625 12.121094 19.65625 Z M 12.121094 19.65625 " fill-opacity="1" fill-rule="nonzero"/><g clip-path="url(#0cc92bccfc)"><path fill="#004aad" d="M 5.242188 25.511719 C 5.125 25.511719 5.011719 25.484375 4.902344 25.4375 C 4.589844 25.300781 4.394531 25.003906 4.394531 24.667969 L 4.394531 22.484375 C 2.492188 22.148438 1.089844 20.496094 1.089844 18.527344 L 1.089844 8.859375 C 1.089844 6.644531 2.894531 4.84375 5.105469 4.84375 L 17.269531 4.84375 C 19.488281 4.84375 21.285156 6.648438 21.285156 8.859375 L 21.285156 18.527344 C 21.285156 20.746094 19.480469 22.542969 17.269531 22.542969 L 8.808594 22.542969 L 5.808594 25.285156 C 5.644531 25.433594 5.445312 25.511719 5.242188 25.511719 Z M 5.105469 5.449219 C 3.230469 5.449219 1.699219 6.980469 1.699219 8.855469 L 1.699219 18.523438 C 1.699219 20.265625 3.003906 21.722656 4.738281 21.90625 C 4.890625 21.921875 5.011719 22.054688 5.011719 22.210938 L 5.011719 24.664062 C 5.011719 24.800781 5.109375 24.859375 5.152344 24.875 C 5.191406 24.894531 5.296875 24.925781 5.402344 24.832031 L 8.488281 22.007812 C 8.546875 21.957031 8.617188 21.925781 8.691406 21.925781 L 17.269531 21.925781 C 19.144531 21.925781 20.675781 20.398438 20.675781 18.523438 L 20.675781 8.859375 C 20.675781 6.984375 19.144531 5.457031 17.269531 5.457031 L 5.105469 5.457031 Z M 5.105469 5.449219 " fill-opacity="1" fill-rule="nonzero"/></g><path fill="#004aad" d="M 11.175781 8.910156 C 10.496094 8.910156 9.941406 8.355469 9.941406 7.675781 C 9.941406 7 10.496094 6.445312 11.175781 6.445312 C 11.851562 6.445312 12.410156 7 12.410156 7.675781 C 12.410156 8.355469 11.859375 8.910156 11.175781 8.910156 Z M 11.175781 7.054688 C 10.832031 7.054688 10.554688 7.335938 10.554688 7.675781 C 10.554688 8.019531 10.832031 8.300781 11.175781 8.300781 C 11.515625 8.300781 11.796875 8.019531 11.796875 7.675781 C 11.796875 7.335938 11.515625 7.054688 11.175781 7.054688 Z M 11.175781 7.054688 " fill-opacity="1" fill-rule="nonzero"/><path fill="#004aad" d="M 11.175781 10.476562 C 11.007812 10.476562 10.867188 10.335938 10.867188 10.167969 L 10.867188 8.605469 C 10.867188 8.4375 11.007812 8.300781 11.175781 8.300781 C 11.34375 8.300781 11.480469 8.4375 11.480469 8.605469 L 11.480469 10.167969 C 11.480469 10.335938 11.34375 10.476562 11.175781 10.476562 Z M 11.175781 10.476562 " fill-opacity="1" fill-rule="nonzero"/><path fill="#004aad" d="M 11.175781 17.320312 L 7.699219 17.320312 C 6.914062 17.320312 6.28125 16.683594 6.28125 15.902344 L 6.28125 11.285156 C 6.28125 10.5 6.917969 9.867188 7.699219 9.867188 L 11.175781 9.867188 C 11.34375 9.867188 11.480469 10.007812 11.480469 10.175781 C 11.480469 10.34375 11.34375 10.480469 11.175781 10.480469 L 7.699219 10.480469 C 7.253906 10.480469 6.894531 10.84375 6.894531 11.285156 L 6.894531 15.902344 C 6.894531 16.347656 7.253906 16.707031 7.699219 16.707031 L 11.175781 16.707031 C 11.34375 16.707031 11.480469 16.847656 11.480469 17.015625 C 11.480469 17.183594 11.34375 17.320312 11.175781 17.320312 Z M 11.175781 17.320312 " fill-opacity="1" fill-rule="nonzero"/><path fill="#004aad" d="M 6.589844 15.214844 L 5.8125 15.214844 C 5.320312 15.214844 4.921875 14.8125 4.921875 14.324219 L 4.921875 12.777344 C 4.921875 12.285156 5.324219 11.886719 5.8125 11.886719 L 6.589844 11.886719 C 6.757812 11.886719 6.894531 12.023438 6.894531 12.191406 L 6.894531 14.914062 C 6.894531 15.082031 6.757812 15.214844 6.589844 15.214844 Z M 5.8125 12.492188 C 5.660156 12.492188 5.53125 12.621094 5.53125 12.773438 L 5.53125 14.316406 C 5.53125 14.472656 5.660156 14.597656 5.8125 14.597656 L 6.28125 14.597656 L 6.28125 12.488281 L 5.8125 12.488281 Z M 5.8125 12.492188 " fill-opacity="1" fill-rule="nonzero"/><path fill="#004aad" d="M 9.226562 13.371094 C 8.964844 13.371094 8.789062 13.101562 8.789062 12.683594 C 8.789062 12.265625 8.964844 11.992188 9.226562 11.992188 C 9.492188 11.992188 9.667969 12.265625 9.667969 12.683594 C 9.667969 13.101562 9.492188 13.371094 9.226562 13.371094 Z M 9.421875 12.855469 Z M 9.421875 12.855469 " fill-opacity="1" fill-rule="nonzero"/><path fill="#004aad" d="M 11.183594 15.628906 C 9.996094 15.628906 9.503906 14.832031 9.484375 14.800781 C 9.394531 14.660156 9.441406 14.472656 9.585938 14.382812 C 9.726562 14.296875 9.917969 14.34375 10.003906 14.488281 C 10.011719 14.507812 10.347656 15.023438 11.179688 15.023438 C 11.347656 15.023438 11.484375 15.160156 11.484375 15.328125 C 11.484375 15.496094 11.351562 15.628906 11.183594 15.628906 Z M 11.183594 15.628906 " fill-opacity="1" fill-rule="nonzero"/><path fill="#004aad" d="M 9.761719 20.820312 L 6.867188 20.820312 C 6.433594 20.820312 6.078125 20.464844 6.078125 20.03125 L 6.078125 18.671875 C 6.078125 18.238281 6.433594 17.878906 6.867188 17.878906 L 9.761719 17.878906 C 10.195312 17.878906 10.554688 18.238281 10.554688 18.671875 L 10.554688 20.03125 C 10.554688 20.464844 10.195312 20.820312 9.761719 20.820312 Z M 6.867188 18.492188 C 6.769531 18.492188 6.691406 18.574219 6.691406 18.671875 L 6.691406 20.03125 C 6.691406 20.128906 6.769531 20.210938 6.867188 20.210938 L 9.761719 20.210938 C 9.859375 20.210938 9.941406 20.128906 9.941406 20.03125 L 9.941406 18.671875 C 9.941406 18.574219 9.859375 18.492188 9.761719 18.492188 Z M 6.867188 18.492188 " fill-opacity="1" fill-rule="nonzero"/><path fill="#004aad" d="M 10.246094 19.65625 C 10.078125 19.65625 9.941406 19.515625 9.941406 19.347656 C 9.941406 18.925781 10.324219 18.496094 11.175781 18.496094 C 11.34375 18.496094 11.480469 18.636719 11.480469 18.804688 C 11.480469 18.972656 11.34375 19.109375 11.175781 19.109375 C 10.773438 19.109375 10.554688 19.230469 10.554688 19.347656 C 10.554688 19.523438 10.414062 19.65625 10.246094 19.65625 Z M 10.246094 19.65625 " fill-opacity="1" fill-rule="nonzero"/><path fill="#004aad" d="M 8.6875 22.542969 C 8.605469 22.542969 8.523438 22.507812 8.464844 22.441406 C 8.351562 22.320312 8.355469 22.125 8.484375 22.007812 L 8.675781 21.835938 C 8.800781 21.722656 8.992188 21.730469 9.109375 21.855469 C 9.222656 21.976562 9.21875 22.171875 9.089844 22.289062 L 8.898438 22.460938 C 8.835938 22.511719 8.765625 22.542969 8.6875 22.542969 Z M 8.6875 22.542969 " fill-opacity="1" fill-rule="nonzero"/><path fill="#004aad" d="M 4.703125 22.519531 C 4.535156 22.519531 4.394531 22.382812 4.394531 22.210938 L 4.394531 21.976562 C 4.394531 21.808594 4.535156 21.671875 4.703125 21.671875 C 4.871094 21.671875 5.007812 21.808594 5.007812 21.976562 L 5.007812 22.210938 C 5.007812 22.382812 4.871094 22.519531 4.703125 22.519531 Z M 4.703125 22.519531 " fill-opacity="1" fill-rule="nonzero"/><g clip-path="url(#577860c3aa)"><g transform="matrix(1, 0, 0, 1, 1, 0.000000000000005692)"><g clip-path="url(#a116a7f479)"><g clip-path="url(#001469075a)"><g mask="url(#87848862ae)"><g transform="matrix(1, 0, 0, 1, 0, 0.000000000000005692)"><g clip-path="url(#50111c467f)"><g clip-path="url(#652a6e5758)"><path fill="url(#12a37b8e1e)" d="M 0.0898438 0 L 0.0898438 29.03125 L 79.925781 29.03125 L 79.925781 0 Z M 0.0898438 0 " fill-rule="nonzero"/></g></g></g></g></g></g></g></g></svg>