<svg xmlns="http://www.w3.org/2000/svg" xmlns:xlink="http://www.w3.org/1999/xlink" width="110" zoomAndPan="magnify" viewBox="0 0 82.5 30.000001" height="40" preserveAspectRatio="xMidYMid meet" version="1.0"><defs><g/><clipPath id="64d8fd77f8"><path d="M 1.089844 4.816406 L 21.410156 4.816406 L 21.410156 25.867188 L 1.089844 25.867188 Z M 1.089844 4.816406 " clip-rule="nonzero"/></clipPath><clipPath id="268c45acdf"><path d="M 21 4 L 80.925781 4 L 80.925781 25 L 21 25 Z M 21 4 " clip-rule="nonzero"/></clipPath><clipPath id="9d0562af68"><path d="M 0.0625 4 L 13 4 L 13 17 L 0.0625 17 Z M 0.0625 4 " clip-rule="nonzero"/></clipPath><clipPath id="4521fae585"><path d="M 48 4 L 59.925781 4 L 59.925781 17 L 48 17 Z M 48 4 " clip-rule="nonzero"/></clipPath><clipPath id="3a0c5c5f04"><rect x="0" width="60" y="0" height="21"/></clipPath></defs><path fill="#004aad" d="M 11.195312 8.910156 C 10.515625 8.910156 9.960938 8.355469 9.960938 7.675781 C 9.960938 7 10.515625 6.445312 11.195312 6.445312 C 11.875 6.445312 12.429688 7 12.429688 7.675781 C 12.429688 8.355469 11.875 8.910156 11.195312 8.910156 Z M 11.195312 7.054688 C 10.855469 7.054688 10.574219 7.335938 10.574219 7.675781 C 10.574219 8.019531 10.855469 8.300781 11.195312 8.300781 C 11.535156 8.300781 11.816406 8.019531 11.816406 7.675781 C 11.816406 7.335938 11.535156 7.054688 11.195312 7.054688 Z M 11.195312 7.054688 " fill-opacity="1" fill-rule="nonzero"/><path fill="#004aad" d="M 11.195312 10.476562 C 11.027344 10.476562 10.890625 10.335938 10.890625 10.167969 L 10.890625 8.605469 C 10.890625 8.4375 11.027344 8.300781 11.195312 8.300781 C 11.363281 8.300781 11.5 8.4375 11.5 8.605469 L 11.5 10.167969 C 11.5 10.335938 11.363281 10.476562 11.195312 10.476562 Z M 11.195312 10.476562 " fill-opacity="1" fill-rule="nonzero"/><path fill="#004aad" d="M 14.671875 17.320312 L 11.195312 17.320312 C 11.027344 17.320312 10.890625 17.183594 10.890625 17.015625 C 10.890625 16.847656 11.027344 16.707031 11.195312 16.707031 L 14.671875 16.707031 C 15.113281 16.707031 15.476562 16.347656 15.476562 15.902344 L 15.476562 11.285156 C 15.476562 10.84375 15.113281 10.480469 14.671875 10.480469 L 11.195312 10.480469 C 11.027344 10.480469 10.890625 10.34375 10.890625 10.175781 C 10.890625 10.007812 11.027344 9.867188 11.195312 9.867188 L 14.671875 9.867188 C 15.457031 9.867188 16.089844 10.507812 16.089844 11.285156 L 16.089844 15.902344 C 16.089844 16.683594 15.449219 17.320312 14.671875 17.320312 Z M 14.671875 17.320312 " fill-opacity="1" fill-rule="nonzero"/><path fill="#004aad" d="M 16.558594 15.214844 L 15.78125 15.214844 C 15.613281 15.214844 15.476562 15.078125 15.476562 14.910156 L 15.476562 12.1875 C 15.476562 12.019531 15.613281 11.882812 15.78125 11.882812 L 16.558594 11.882812 C 17.050781 11.882812 17.449219 12.285156 17.449219 12.773438 L 17.449219 14.316406 C 17.449219 14.816406 17.046875 15.214844 16.558594 15.214844 Z M 16.089844 14.605469 L 16.558594 14.605469 C 16.710938 14.605469 16.835938 14.476562 16.835938 14.324219 L 16.835938 12.777344 C 16.835938 12.625 16.710938 12.5 16.558594 12.5 L 16.089844 12.5 Z M 16.089844 14.605469 " fill-opacity="1" fill-rule="nonzero"/><path fill="#004aad" d="M 13.140625 13.371094 C 12.878906 13.371094 12.703125 13.101562 12.703125 12.683594 C 12.703125 12.265625 12.878906 11.992188 13.140625 11.992188 C 13.40625 11.992188 13.582031 12.265625 13.582031 12.683594 C 13.585938 13.101562 13.414062 13.371094 13.140625 13.371094 Z M 13.140625 13.371094 " fill-opacity="1" fill-rule="nonzero"/><path fill="#004aad" d="M 11.183594 15.628906 C 11.015625 15.628906 10.878906 15.492188 10.878906 15.320312 C 10.878906 15.152344 11.015625 15.015625 11.183594 15.015625 C 12.015625 15.015625 12.351562 14.5 12.363281 14.480469 C 12.449219 14.339844 12.636719 14.292969 12.78125 14.378906 C 12.921875 14.464844 12.96875 14.65625 12.882812 14.800781 C 12.867188 14.832031 12.371094 15.628906 11.183594 15.628906 Z M 11.183594 15.628906 " fill-opacity="1" fill-rule="nonzero"/><path fill="#004aad" d="M 15.5 20.820312 L 12.605469 20.820312 C 12.171875 20.820312 11.816406 20.464844 11.816406 20.03125 L 11.816406 18.671875 C 11.816406 18.238281 12.171875 17.878906 12.605469 17.878906 L 15.5 17.878906 C 15.933594 17.878906 16.292969 18.238281 16.292969 18.671875 L 16.292969 20.03125 C 16.292969 20.464844 15.933594 20.820312 15.5 20.820312 Z M 12.605469 18.492188 C 12.511719 18.492188 12.429688 18.574219 12.429688 18.671875 L 12.429688 20.03125 C 12.429688 20.128906 12.511719 20.210938 12.605469 20.210938 L 15.5 20.210938 C 15.597656 20.210938 15.679688 20.128906 15.679688 20.03125 L 15.679688 18.671875 C 15.679688 18.574219 15.597656 18.492188 15.5 18.492188 Z M 12.605469 18.492188 " fill-opacity="1" fill-rule="nonzero"/><path fill="#004aad" d="M 12.121094 19.65625 C 11.953125 19.65625 11.816406 19.515625 11.816406 19.347656 C 11.816406 19.230469 11.597656 19.109375 11.195312 19.109375 C 11.027344 19.109375 10.890625 18.972656 10.890625 18.804688 C 10.890625 18.636719 11.027344 18.496094 11.195312 18.496094 C 12.046875 18.496094 12.429688 18.925781 12.429688 19.347656 C 12.429688 19.523438 12.292969 19.65625 12.121094 19.65625 Z M 12.121094 19.65625 " fill-opacity="1" fill-rule="nonzero"/><g clip-path="url(#64d8fd77f8)"><path fill="#004aad" d="M 5.242188 25.511719 C 5.125 25.511719 5.011719 25.484375 4.902344 25.4375 C 4.589844 25.300781 4.394531 25.003906 4.394531 24.667969 L 4.394531 22.484375 C 2.492188 22.148438 1.089844 20.496094 1.089844 18.527344 L 1.089844 8.859375 C 1.089844 6.644531 2.894531 4.84375 5.105469 4.84375 L 17.269531 4.84375 C 19.488281 4.84375 21.285156 6.648438 21.285156 8.859375 L 21.285156 18.527344 C 21.285156 20.746094 19.480469 22.542969 17.269531 22.542969 L 8.808594 22.542969 L 5.808594 25.285156 C 5.644531 25.433594 5.445312 25.511719 5.242188 25.511719 Z M 5.105469 5.449219 C 3.230469 5.449219 1.699219 6.980469 1.699219 8.855469 L 1.699219 18.523438 C 1.699219 20.265625 3.003906 21.722656 4.738281 21.90625 C 4.890625 21.921875 5.011719 22.054688 5.011719 22.210938 L 5.011719 24.664062 C 5.011719 24.800781 5.109375 24.859375 5.152344 24.875 C 5.191406 24.894531 5.296875 24.925781 5.402344 24.832031 L 8.488281 22.007812 C 8.546875 21.957031 8.617188 21.925781 8.691406 21.925781 L 17.269531 21.925781 C 19.144531 21.925781 20.675781 20.398438 20.675781 18.523438 L 20.675781 8.859375 C 20.675781 6.984375 19.144531 5.457031 17.269531 5.457031 L 5.105469 5.457031 Z M 5.105469 5.449219 " fill-opacity="1" fill-rule="nonzero"/></g><path fill="#004aad" d="M 11.175781 8.910156 C 10.496094 8.910156 9.941406 8.355469 9.941406 7.675781 C 9.941406 7 10.496094 6.445312 11.175781 6.445312 C 11.851562 6.445312 12.410156 7 12.410156 7.675781 C 12.410156 8.355469 11.859375 8.910156 11.175781 8.910156 Z M 11.175781 7.054688 C 10.832031 7.054688 10.554688 7.335938 10.554688 7.675781 C 10.554688 8.019531 10.832031 8.300781 11.175781 8.300781 C 11.515625 8.300781 11.796875 8.019531 11.796875 7.675781 C 11.796875 7.335938 11.515625 7.054688 11.175781 7.054688 Z M 11.175781 7.054688 " fill-opacity="1" fill-rule="nonzero"/><path fill="#004aad" d="M 11.175781 10.476562 C 11.007812 10.476562 10.867188 10.335938 10.867188 10.167969 L 10.867188 8.605469 C 10.867188 8.4375 11.007812 8.300781 11.175781 8.300781 C 11.34375 8.300781 11.480469 8.4375 11.480469 8.605469 L 11.480469 10.167969 C 11.480469 10.335938 11.34375 10.476562 11.175781 10.476562 Z M 11.175781 10.476562 " fill-opacity="1" fill-rule="nonzero"/><path fill="#004aad" d="M 11.175781 17.320312 L 7.699219 17.320312 C 6.914062 17.320312 6.28125 16.683594 6.28125 15.902344 L 6.28125 11.285156 C 6.28125 10.5 6.917969 9.867188 7.699219 9.867188 L 11.175781 9.867188 C 11.34375 9.867188 11.480469 10.007812 11.480469 10.175781 C 11.480469 10.34375 11.34375 10.480469 11.175781 10.480469 L 7.699219 10.480469 C 7.253906 10.480469 6.894531 10.84375 6.894531 11.285156 L 6.894531 15.902344 C 6.894531 16.347656 7.253906 16.707031 7.699219 16.707031 L 11.175781 16.707031 C 11.34375 16.707031 11.480469 16.847656 11.480469 17.015625 C 11.480469 17.183594 11.34375 17.320312 11.175781 17.320312 Z M 11.175781 17.320312 " fill-opacity="1" fill-rule="nonzero"/><path fill="#004aad" d="M 6.589844 15.214844 L 5.8125 15.214844 C 5.320312 15.214844 4.921875 14.8125 4.921875 14.324219 L 4.921875 12.777344 C 4.921875 12.285156 5.324219 11.886719 5.8125 11.886719 L 6.589844 11.886719 C 6.757812 11.886719 6.894531 12.023438 6.894531 12.191406 L 6.894531 14.914062 C 6.894531 15.082031 6.757812 15.214844 6.589844 15.214844 Z M 5.8125 12.492188 C 5.660156 12.492188 5.53125 12.621094 5.53125 12.773438 L 5.53125 14.316406 C 5.53125 14.472656 5.660156 14.597656 5.8125 14.597656 L 6.28125 14.597656 L 6.28125 12.488281 L 5.8125 12.488281 Z M 5.8125 12.492188 " fill-opacity="1" fill-rule="nonzero"/><path fill="#004aad" d="M 9.226562 13.371094 C 8.964844 13.371094 8.789062 13.101562 8.789062 12.683594 C 8.789062 12.265625 8.964844 11.992188 9.226562 11.992188 C 9.492188 11.992188 9.667969 12.265625 9.667969 12.683594 C 9.667969 13.101562 9.492188 13.371094 9.226562 13.371094 Z M 9.421875 12.855469 Z M 9.421875 12.855469 " fill-opacity="1" fill-rule="nonzero"/><path fill="#004aad" d="M 11.183594 15.628906 C 9.996094 15.628906 9.503906 14.832031 9.484375 14.800781 C 9.394531 14.660156 9.441406 14.472656 9.585938 14.382812 C 9.726562 14.296875 9.917969 14.34375 10.003906 14.488281 C 10.011719 14.507812 10.347656 15.023438 11.179688 15.023438 C 11.347656 15.023438 11.484375 15.160156 11.484375 15.328125 C 11.484375 15.496094 11.351562 15.628906 11.183594 15.628906 Z M 11.183594 15.628906 " fill-opacity="1" fill-rule="nonzero"/><path fill="#004aad" d="M 9.761719 20.820312 L 6.867188 20.820312 C 6.433594 20.820312 6.078125 20.464844 6.078125 20.03125 L 6.078125 18.671875 C 6.078125 18.238281 6.433594 17.878906 6.867188 17.878906 L 9.761719 17.878906 C 10.195312 17.878906 10.554688 18.238281 10.554688 18.671875 L 10.554688 20.03125 C 10.554688 20.464844 10.195312 20.820312 9.761719 20.820312 Z M 6.867188 18.492188 C 6.769531 18.492188 6.691406 18.574219 6.691406 18.671875 L 6.691406 20.03125 C 6.691406 20.128906 6.769531 20.210938 6.867188 20.210938 L 9.761719 20.210938 C 9.859375 20.210938 9.941406 20.128906 9.941406 20.03125 L 9.941406 18.671875 C 9.941406 18.574219 9.859375 18.492188 9.761719 18.492188 Z M 6.867188 18.492188 " fill-opacity="1" fill-rule="nonzero"/><path fill="#004aad" d="M 10.246094 19.65625 C 10.078125 19.65625 9.941406 19.515625 9.941406 19.347656 C 9.941406 18.925781 10.324219 18.496094 11.175781 18.496094 C 11.34375 18.496094 11.480469 18.636719 11.480469 18.804688 C 11.480469 18.972656 11.34375 19.109375 11.175781 19.109375 C 10.773438 19.109375 10.554688 19.230469 10.554688 19.347656 C 10.554688 19.523438 10.414062 19.65625 10.246094 19.65625 Z M 10.246094 19.65625 " fill-opacity="1" fill-rule="nonzero"/><path fill="#004aad" d="M 8.6875 22.542969 C 8.605469 22.542969 8.523438 22.507812 8.464844 22.441406 C 8.351562 22.320312 8.355469 22.125 8.484375 22.007812 L 8.675781 21.835938 C 8.800781 21.722656 8.992188 21.730469 9.109375 21.855469 C 9.222656 21.976562 9.21875 22.171875 9.089844 22.289062 L 8.898438 22.460938 C 8.835938 22.511719 8.765625 22.542969 8.6875 22.542969 Z M 8.6875 22.542969 " fill-opacity="1" fill-rule="nonzero"/><path fill="#004aad" d="M 4.703125 22.519531 C 4.535156 22.519531 4.394531 22.382812 4.394531 22.210938 L 4.394531 21.976562 C 4.394531 21.808594 4.535156 21.671875 4.703125 21.671875 C 4.871094 21.671875 5.007812 21.808594 5.007812 21.976562 L 5.007812 22.210938 C 5.007812 22.382812 4.871094 22.519531 4.703125 22.519531 Z M 4.703125 22.519531 " fill-opacity="1" fill-rule="nonzero"/><g clip-path="url(#268c45acdf)"><g transform="matrix(1, 0, 0, 1, 21, 4)"><g clip-path="url(#3a0c5c5f04)"><g clip-path="url(#9d0562af68)"><g fill="#000000" fill-opacity="1"><g transform="translate(0.296871, 16.346187)"><g><path d="M 11.546875 -11.75 C 12.179688 -11.4375 12.5 -11.09375 12.5 -10.71875 C 12.5 -10.539062 12.421875 -10.28125 12.265625 -9.9375 L 7.765625 -0.8125 C 7.648438 -0.570312 7.46875 -0.378906 7.21875 -0.234375 C 6.976562 -0.0859375 6.726562 -0.015625 6.46875 -0.015625 L 6.296875 -0.015625 C 6.023438 -0.015625 5.765625 -0.0859375 5.515625 -0.234375 C 5.273438 -0.378906 5.097656 -0.570312 4.984375 -0.8125 L 0.484375 -9.9375 C 0.328125 -10.28125 0.25 -10.539062 0.25 -10.71875 C 0.25 -11.09375 0.566406 -11.4375 1.203125 -11.75 C 1.554688 -11.9375 1.828125 -12.03125 2.015625 -12.03125 C 2.210938 -12.03125 2.359375 -12.007812 2.453125 -11.96875 C 2.554688 -11.925781 2.648438 -11.847656 2.734375 -11.734375 C 2.828125 -11.609375 2.914062 -11.46875 3 -11.3125 C 3.082031 -11.15625 3.289062 -10.703125 3.625 -9.953125 C 3.96875 -9.210938 4.332031 -8.421875 4.71875 -7.578125 C 5.101562 -6.742188 5.460938 -5.957031 5.796875 -5.21875 C 6.140625 -4.476562 6.332031 -4.0625 6.375 -3.96875 L 9.640625 -11.109375 C 9.722656 -11.304688 9.796875 -11.46875 9.859375 -11.59375 C 10.054688 -11.882812 10.296875 -12.03125 10.578125 -12.03125 C 10.859375 -12.03125 11.179688 -11.9375 11.546875 -11.75 Z M 11.546875 -11.75 "/></g></g></g></g><g fill="#000000" fill-opacity="1"><g transform="translate(10.600121, 16.346187)"><g><path d="M 7.53125 -11.09375 L 11.9375 -2 C 12.125 -1.632812 12.21875 -1.359375 12.21875 -1.171875 C 12.21875 -0.785156 11.898438 -0.429688 11.265625 -0.109375 C 10.898438 0.0664062 10.609375 0.15625 10.390625 0.15625 C 10.179688 0.15625 10.007812 0.109375 9.875 0.015625 C 9.738281 -0.078125 9.640625 -0.175781 9.578125 -0.28125 C 9.515625 -0.394531 9.429688 -0.5625 9.328125 -0.78125 L 8.484375 -2.546875 L 3.96875 -2.546875 L 3.125 -0.78125 C 3.019531 -0.5625 2.9375 -0.398438 2.875 -0.296875 C 2.8125 -0.203125 2.710938 -0.101562 2.578125 0 C 2.441406 0.09375 2.265625 0.140625 2.046875 0.140625 C 1.835938 0.140625 1.550781 0.0507812 1.1875 -0.125 C 0.5625 -0.4375 0.25 -0.785156 0.25 -1.171875 C 0.25 -1.359375 0.335938 -1.632812 0.515625 -2 L 4.921875 -11.109375 C 5.035156 -11.359375 5.210938 -11.554688 5.453125 -11.703125 C 5.703125 -11.859375 5.960938 -11.9375 6.234375 -11.9375 C 6.816406 -11.9375 7.25 -11.65625 7.53125 -11.09375 Z M 6.21875 -7.1875 L 5.140625 -4.953125 L 7.3125 -4.953125 Z M 6.21875 -7.1875 "/></g></g></g><g fill="#000000" fill-opacity="1"><g transform="translate(23.052259, 16.346187)"><g><path d="M 0.65625 -10.5 C 0.65625 -10.75 0.660156 -10.9375 0.671875 -11.0625 C 0.691406 -11.1875 0.742188 -11.332031 0.828125 -11.5 C 0.984375 -11.789062 1.40625 -11.9375 2.09375 -11.9375 C 2.851562 -11.9375 3.304688 -11.734375 3.453125 -11.328125 C 3.503906 -11.148438 3.53125 -10.867188 3.53125 -10.484375 L 3.53125 -1.4375 C 3.53125 -1.175781 3.519531 -0.984375 3.5 -0.859375 C 3.488281 -0.742188 3.441406 -0.601562 3.359375 -0.4375 C 3.203125 -0.144531 2.773438 0 2.078125 0 C 1.316406 0 0.875 -0.207031 0.75 -0.625 C 0.6875 -0.789062 0.65625 -1.066406 0.65625 -1.453125 Z M 0.65625 -10.5 "/></g></g></g><g fill="#000000" fill-opacity="1"><g transform="translate(27.235526, 16.346187)"><g><path d="M 5.765625 -5.984375 C 7.421875 -4.390625 8.597656 -3.191406 9.296875 -2.390625 C 9.648438 -1.992188 9.828125 -1.65625 9.828125 -1.375 C 9.828125 -1.09375 9.609375 -0.765625 9.171875 -0.390625 C 8.742188 -0.0234375 8.390625 0.15625 8.109375 0.15625 C 7.835938 0.15625 7.503906 -0.0664062 7.109375 -0.515625 L 3.53125 -4.609375 L 3.53125 -1.4375 C 3.53125 -1.175781 3.519531 -0.984375 3.5 -0.859375 C 3.488281 -0.742188 3.441406 -0.601562 3.359375 -0.4375 C 3.203125 -0.144531 2.773438 0 2.078125 0 C 1.316406 0 0.875 -0.207031 0.75 -0.625 C 0.6875 -0.789062 0.65625 -1.066406 0.65625 -1.453125 L 0.65625 -10.5 C 0.65625 -10.75 0.660156 -10.9375 0.671875 -11.0625 C 0.691406 -11.1875 0.742188 -11.332031 0.828125 -11.5 C 0.984375 -11.789062 1.40625 -11.9375 2.09375 -11.9375 C 2.851562 -11.9375 3.304688 -11.734375 3.453125 -11.328125 C 3.503906 -11.148438 3.53125 -10.867188 3.53125 -10.484375 L 3.53125 -7.375 C 5.007812 -9.03125 6.203125 -10.394531 7.109375 -11.46875 C 7.492188 -11.90625 7.828125 -12.125 8.109375 -12.125 C 8.390625 -12.125 8.742188 -11.9375 9.171875 -11.5625 C 9.609375 -11.1875 9.828125 -10.859375 9.828125 -10.578125 C 9.828125 -10.304688 9.664062 -9.984375 9.34375 -9.609375 C 8.71875 -8.878906 7.742188 -7.878906 6.421875 -6.609375 Z M 5.765625 -5.984375 "/></g></g></g><g fill="#000000" fill-opacity="1"><g transform="translate(37.636724, 16.346187)"><g><path d="M 3.53125 -2.875 L 8.546875 -2.875 C 8.796875 -2.875 8.984375 -2.863281 9.109375 -2.84375 C 9.234375 -2.832031 9.378906 -2.785156 9.546875 -2.703125 C 9.835938 -2.546875 9.984375 -2.125 9.984375 -1.4375 C 9.984375 -0.675781 9.78125 -0.226562 9.375 -0.09375 C 9.1875 -0.03125 8.90625 0 8.53125 0 L 2.078125 0 C 1.316406 0 0.875 -0.207031 0.75 -0.625 C 0.6875 -0.789062 0.65625 -1.066406 0.65625 -1.453125 L 0.65625 -10.5 C 0.65625 -11.050781 0.753906 -11.425781 0.953125 -11.625 C 1.160156 -11.832031 1.554688 -11.9375 2.140625 -11.9375 L 8.546875 -11.9375 C 8.796875 -11.9375 8.984375 -11.925781 9.109375 -11.90625 C 9.234375 -11.894531 9.378906 -11.84375 9.546875 -11.75 C 9.835938 -11.601562 9.984375 -11.179688 9.984375 -10.484375 C 9.984375 -9.722656 9.78125 -9.28125 9.375 -9.15625 C 9.1875 -9.082031 8.90625 -9.046875 8.53125 -9.046875 L 3.53125 -9.046875 L 3.53125 -7.40625 L 6.75 -7.40625 C 7 -7.40625 7.1875 -7.394531 7.3125 -7.375 C 7.4375 -7.363281 7.582031 -7.316406 7.75 -7.234375 C 8.039062 -7.078125 8.1875 -6.648438 8.1875 -5.953125 C 8.1875 -5.191406 7.984375 -4.75 7.578125 -4.625 C 7.390625 -4.5625 7.101562 -4.53125 6.71875 -4.53125 L 3.53125 -4.53125 Z M 3.53125 -2.875 "/></g></g></g><g clip-path="url(#4521fae585)"><g fill="#000000" fill-opacity="1"><g transform="translate(48.021644, 16.346187)"><g><path d="M 1.4375 -11.953125 L 10.484375 -11.953125 C 10.828125 -11.953125 11.082031 -11.910156 11.25 -11.828125 C 11.414062 -11.742188 11.523438 -11.613281 11.578125 -11.4375 C 11.628906 -11.269531 11.65625 -11.046875 11.65625 -10.765625 C 11.65625 -10.484375 11.628906 -10.253906 11.578125 -10.078125 C 11.523438 -9.910156 11.429688 -9.796875 11.296875 -9.734375 C 11.097656 -9.640625 10.820312 -9.59375 10.46875 -9.59375 L 7.359375 -9.59375 L 7.359375 -1.40625 C 7.359375 -1.15625 7.347656 -0.96875 7.328125 -0.84375 C 7.316406 -0.726562 7.269531 -0.59375 7.1875 -0.4375 C 7.101562 -0.28125 6.957031 -0.164062 6.75 -0.09375 C 6.550781 -0.03125 6.28125 0 5.9375 0 C 5.601562 0 5.332031 -0.03125 5.125 -0.09375 C 4.925781 -0.164062 4.785156 -0.28125 4.703125 -0.4375 C 4.628906 -0.59375 4.582031 -0.734375 4.5625 -0.859375 C 4.550781 -0.984375 4.546875 -1.171875 4.546875 -1.421875 L 4.546875 -9.59375 L 1.421875 -9.59375 C 1.066406 -9.59375 0.804688 -9.628906 0.640625 -9.703125 C 0.484375 -9.785156 0.378906 -9.914062 0.328125 -10.09375 C 0.273438 -10.269531 0.25 -10.5 0.25 -10.78125 C 0.25 -11.0625 0.273438 -11.285156 0.328125 -11.453125 C 0.378906 -11.617188 0.472656 -11.734375 0.609375 -11.796875 C 0.796875 -11.898438 1.070312 -11.953125 1.4375 -11.953125 Z M 1.4375 -11.953125 "/></g></g></g></g></g></g></g></svg>